#!OML:ASF E:\acrobat2\Project_11_07_03\Capture day 1\Session 1\Acrobat.ASF
:FULLY-SPECIFIED
:DEGREES
158
root 12.271 18.2802 27.3698 -173.716 1.1816 -179.799
lowerback -10.7189 0.700533 -0.191173
upperback -5.14521 1.53873 -1.57804
thorax 0.692961 0.994558 -1.35099
lowerneck -1.7387 -1.81831 -1.05967
upperneck -0.742313 -2.48144 4.44563
head 0.135076 -1.26152 1.5318
rclavicle 1.54058e-014 -1.86858e-014
rhumerus -47.1272 14.8841 -100.701
rradius 27.0407
rwrist 5.3184
rhand -4.42578 -42.9482
rfingers 7.12502
rthumb 21.345 -71.7926
lclavicle 1.54058e-014 -1.86858e-014
lhumerus -38.3355 -20.1036 96.7262
lradius 18.8145
lwrist 11.8476
lhand -8.42703 -11.1923
lfingers 7.12502
lthumb 17.4979 18.0402
rfemur 2.2379 6.21027 23.4139
rtibia 1.66228
rfoot -18.3043 -13.5438
rtoes 11.898
lfemur 0.189676 -1.46748 -18.8397
ltibia 4.07124
lfoot -6.62563 -7.0193
ltoes 32.455
159
root 12.2729 18.2787 27.3693 -173.714 1.17358 -179.804
lowerback -10.7292 0.660797 -0.196781
upperback -5.12789 1.48334 -1.54615
thorax 0.714399 0.966155 -1.32053
lowerneck -1.83631 -1.74424 -1.28174
upperneck -0.660164 -2.38339 4.65386
head 0.179946 -1.21017 1.63656
rclavicle -2.68359e-015 -5.96354e-015
rhumerus -47.0984 14.9645 -100.656
rradius 27.0606
rwrist 5.25499
rhand -4.26699 -42.7513
rfingers 7.12502
rthumb 21.4976 -71.5784
lclavicle -2.68359e-015 -5.96354e-015
lhumerus -38.3333 -20.0816 96.7817
lradius 18.8481
lwrist 11.8587
lhand -8.01712 -10.8817
lfingers 7.12502
lthumb 17.8924 18.3152
rfemur 2.23989 6.21591 23.419
rtibia 1.65331
rfoot -18.2225 -13.4628
rtoes 12.5337
lfemur 0.165875 -1.49979 -18.8501
ltibia 4.10819
lfoot -6.66792 -6.9778
ltoes 32.2306
160
root 12.2735 18.2795 27.3689 -173.758 1.17214 -179.805
lowerback -10.6935 0.679785 -0.143422
upperback -5.10856 1.50082 -1.5852
thorax 0.717545 0.972336 -1.38941
lowerneck -1.85225 -1.75598 -1.25206
upperneck -0.646824 -2.40145 4.67511
head 0.187222 -1.21938 1.63778
rclavicle -1.91827e-014 1.47101e-014
rhumerus -47.0372 14.8837 -100.651
rradius 27.0429
rwrist 5.29711
rhand -4.08534 -42.696
rfingers 7.12502
rthumb 21.672 -71.5031
lclavicle -1.91827e-014 1.47101e-014
lhumerus -38.4167 -20.3141 96.893
lradius 18.9134
lwrist 12.1931
lhand -7.59656 -10.7935
lfingers 7.12502
lthumb 18.297 18.366
rfemur 2.25961 6.05327 23.4029
rtibia 1.6797
rfoot -18.0595 -13.4096
rtoes 12.0576
lfemur 0.219862 -1.4663 -18.8539
ltibia 4.09719
lfoot -6.65175 -6.98471
ltoes 32.201
161
root 12.2735 18.2806 27.3671 -173.771 1.17246 -179.822
lowerback -10.6724 0.718861 -0.0682408
upperback -5.12804 1.55099 -1.67935
thorax 0.691138 0.996911 -1.52431
lowerneck -1.67903 -1.81141 -1.14096
upperneck -0.740259 -2.47653 4.68123
head 0.13021 -1.26139 1.62178
rclavicle 3.57812e-015 3.97569e-016
rhumerus -47.0373 14.6973 -100.7
rradius 27.0664
rwrist 5.36338
rhand -3.97056 -42.7637
rfingers 7.12502
rthumb 21.7822 -71.5579
lclavicle 3.57812e-015 3.97569e-016
lhumerus -38.4959 -20.4853 96.8973
lradius 18.9442
lwrist 12.3389
lhand -7.12325 -10.7609
lfingers 7.12502
lthumb 18.7523 18.3553
rfemur 2.24509 5.8636 23.3615
rtibia 1.74756
rfoot -17.9625 -13.1747
rtoes 11.8615
lfemur 0.266676 -1.49157 -18.8758
ltibia 4.05624
lfoot -6.61343 -7.02548
ltoes 32.8214
162
root 12.2743 18.2808 27.3659 -173.747 1.16841 -179.844
lowerback -10.7022 0.696454 -0.0691965
upperback -5.13946 1.52417 -1.68081
thorax 0.694748 0.984625 -1.52785
lowerneck -1.48395 -1.80249 -1.22456
upperneck -0.903849 -2.45734 4.72304
head 0.0481563 -1.25602 1.65283
rclavicle 9.44227e-015 -1.27222e-014
rhumerus -47.0457 14.7514 -100.756
rradius 27.0829
rwrist 5.39902
rhand -4.1082 -42.7511
rfingers 7.12502
rthumb 21.6501 -71.5607
lclavicle 9.44227e-015 -1.27222e-014
lhumerus -38.3741 -20.1693 96.7468
lradius 18.8249
lwrist 12.07
lhand -7.87131 -11.0328
lfingers 7.12502
lthumb 18.0327 18.1513
rfemur 2.24615 5.87002 23.3369
rtibia 1.73198
rfoot -18.0646 -13.1275
rtoes 11.9016
lfemur 0.250148 -1.52536 -18.8979
ltibia 4.06389
lfoot -6.5617 -7.06776
ltoes 33.2824
163
root 12.2769 18.2807 27.3664 -173.756 1.10852 -179.819
lowerback -10.6905 0.641565 -0.0896358
upperback -5.13103 1.44928 -1.61774
thorax 0.693178 0.947037 -1.45952
lowerneck -1.54117 -1.75448 -1.37525
upperneck -0.814359 -2.39113 4.75088
head 0.0856546 -1.21943 1.68756
rclavicle 3.77691e-015 -1.31198e-014
rhumerus -47.0609 14.956 -100.829
rradius 27.1002
rwrist 5.29295
rhand -4.37442 -42.6948
rfingers 7.12502
rthumb 21.3944 -71.5336
lclavicle 3.77691e-015 -1.31198e-014
lhumerus -38.2201 -19.7616 96.6065
lradius 18.6994
lwrist 11.7895
lhand -6.90956 -10.9631
lfingers 7.12502
lthumb 18.9578 18.1331
rfemur 2.29659 5.98047 23.3935
rtibia 1.70263
rfoot -18.303 -13.3921
rtoes 11.7825
lfemur 0.232493 -1.58625 -18.8563
ltibia 4.09373
lfoot -6.52595 -7.0536
ltoes 33.3199
164
root 12.2803 18.2804 27.3644 -173.748 1.03716 -179.745
lowerback -10.7155 0.629649 -0.0424021
upperback -5.12335 1.42854 -1.60651
thorax 0.714921 0.935901 -1.47618
lowerneck -1.75713 -1.76147 -1.33206
upperneck -0.571723 -2.40951 4.75296
head 0.196957 -1.22297 1.6772
rclavicle -1.07344e-014 1.27222e-014
rhumerus -47.037 14.9938 -100.906
rradius 27.0924
rwrist 5.15008
rhand -4.5836 -42.6654
rfingers 7.12502
rthumb 21.1934 -71.5269
lclavicle -1.07344e-014 1.27222e-014
lhumerus -38.1004 -19.5834 96.4722
lradius 18.6174
lwrist 11.5686
lhand -7.05797 -11.1259
lfingers 7.12502
lthumb 18.8151 17.9841
rfemur 2.31483 6.03871 23.5162
rtibia 1.71507
rfoot -18.4359 -13.5243
rtoes 12.1707
lfemur 0.230488 -1.64909 -18.7482
ltibia 4.06681
lfoot -6.48158 -7.01778
ltoes 33.6403
165
root 12.2826 18.2805 27.3617 -173.719 1.01996 -179.649
lowerback -10.7754 0.617204 0.0455709
upperback -5.12265 1.40399 -1.5753
thorax 0.748538 0.92288 -1.49496
lowerneck -1.78943 -1.7744 -1.29329
upperneck -0.560291 -2.4292 4.76011
head 0.206128 -1.23285 1.67215
rclavicle -6.65929e-015 4.77083e-015
rhumerus -46.9582 14.9989 -100.921
rradius 27.0361
rwrist 5.13225
rhand -4.6171 -42.7695
rfingers 7.12502
rthumb 21.1613 -71.6346
lclavicle -6.65929e-015 4.77083e-015
lhumerus -38.0566 -19.4707 96.4225
lradius 18.6083
lwrist 11.4614
lhand -7.21284 -11.212
lfingers 7.12502
lthumb 18.6661 17.9124
rfemur 2.30267 6.01349 23.6441
rtibia 1.67816
rfoot -18.3757 -13.5299
rtoes 12.1762
lfemur 0.222387 -1.57316 -18.6036
ltibia 4.04886
lfoot -6.39162 -7.07054
ltoes 34.0298
166
root 12.285 18.2809 27.361 -173.726 1.01451 -179.518
lowerback -10.773 0.577653 0.157169
upperback -5.13435 1.3378 -1.48944
thorax 0.733305 0.888386 -1.47656
lowerneck -1.63196 -1.74572 -1.36103
upperneck -0.695098 -2.38401 4.76532
head 0.137536 -1.21337 1.68824
rclavicle 1.10325e-014 1.19271e-015
rhumerus -46.9811 15.1214 -100.94
rradius 27.0624
rwrist 5.08898
rhand -4.54684 -42.955
rfingers 7.12502
rthumb 21.2288 -71.8125
lclavicle 1.10325e-014 1.19271e-015
lhumerus -38.0854 -19.3428 96.4678
lradius 18.6423
lwrist 11.4559
lhand -7.35823 -10.7293
lfingers 7.12502
lthumb 18.5263 18.4085
rfemur 2.32948 6.00713 23.8187
rtibia 1.65259
rfoot -18.2553 -13.5724
rtoes 11.6171
lfemur 0.212601 -1.59007 -18.4335
ltibia 4.12463
lfoot -6.45633 -7.08495
ltoes 33.8094
167
root 12.2874 18.2811 27.3608 -173.752 1.01422 -179.465
lowerback -10.7377 0.564902 0.182861
upperback -5.14339 1.31632 -1.44617
thorax 0.703616 0.877168 -1.44942
lowerneck -1.63083 -1.73607 -1.43583
upperneck -0.604062 -2.37134 4.78909
head 0.166411 -1.20496 1.70868
rclavicle -9.93923e-016 -8.34896e-015
rhumerus -47.0077 15.169 -100.953
rradius 27.082
rwrist 5.04755
rhand -4.63016 -43.0332
rfingers 7.12502
rthumb 21.1487 -71.8997
lclavicle -9.93923e-016 -8.34896e-015
lhumerus -38.0813 -19.2537 96.48
lradius 18.6697
lwrist 11.4652
lhand -6.72711 -10.6002
lfingers 7.12502
lthumb 19.1333 18.4786
rfemur 2.36467 6.04275 23.9004
rtibia 1.66574
rfoot -18.2452 -13.6116
rtoes 11.1537
lfemur 0.193417 -1.77303 -18.3869
ltibia 4.24398
lfoot -6.6811 -6.99515
ltoes 33.5818
